<svg width="200" height="140" fill="none" xmlns="http://www.w3.org/2000/svg"><g clip-path="url(#a)" stroke="#000" stroke-width="5" stroke-miterlimit="10"><path d="M0 1.96c11.108 0 11.108 17.648 22.217 17.648 11.108 0 11.108-17.647 22.217-17.647 11.108 0 11.108 17.647 22.217 17.647 11.108 0 11.108-17.647 22.217-17.647 11.109 0 11.109 17.647 22.216 17.647 11.109 0 11.109-17.647 22.218-17.647 11.108 0 11.108 17.647 22.217 17.647 11.108 0 11.108-17.647 22.241-17.647 11.131 0 11.108 17.647 22.24 17.647M0 72.549c11.108 0 11.108 17.647 22.217 17.647 11.108 0 11.108-17.647 22.217-17.647 11.108 0 11.108 17.647 22.217 17.647 11.108 0 11.108-17.647 22.217-17.647 11.109 0 11.109 17.647 22.216 17.647 11.109 0 11.109-17.647 22.218-17.647 11.108 0 11.108 17.647 22.217 17.647 11.108 0 11.108-17.647 22.241-17.647 11.131 0 11.108 17.647 22.24 17.647M0 25.49c11.115 0 11.115 17.647 22.23 17.647S33.345 25.49 44.46 25.49s11.115 17.647 22.23 17.647S77.805 25.49 88.92 25.49s11.115 17.647 22.231 17.647c11.115 0 11.115-17.647 22.23-17.647s11.115 17.647 22.23 17.647 11.091-17.647 22.135-17.647c11.044 0 11.116 17.647 22.254 17.647M0 119.608c11.115 0 11.115 17.647 22.23 17.647s11.115-17.647 22.23-17.647 11.115 17.647 22.23 17.647 11.115-17.647 22.23-17.647 11.115 17.647 22.231 17.647c11.115 0 11.115-17.647 22.23-17.647s11.115 17.647 22.23 17.647 11.091-17.647 22.135-17.647c11.044 0 11.116 17.647 22.254 17.647M0 49.02c11.108 0 11.108 17.647 22.217 17.647 11.108 0 11.108-17.647 22.217-17.647 11.108 0 11.108 17.647 22.217 17.647 11.108 0 11.108-17.647 22.217-17.647 11.109 0 11.109 17.647 22.216 17.647 11.109 0 11.109-17.647 22.218-17.647 11.108 0 11.108 17.647 22.217 17.647 11.108 0 11.108-17.647 22.241-17.647 11.131 0 11.108 17.647 22.24 17.647M0 96.078c11.108 0 11.108 17.647 22.217 17.647 11.108 0 11.108-17.647 22.217-17.647 11.108 0 11.108 17.647 22.217 17.647 11.108 0 11.108-17.647 22.217-17.647 11.109 0 11.109 17.647 22.216 17.647 11.109 0 11.109-17.647 22.218-17.647 11.108 0 11.108 17.647 22.217 17.647 11.108 0 11.108-17.647 22.241-17.647 11.131 0 11.108 17.647 22.24 17.647"/></g><defs><clipPath id="a"><path fill="#fff" d="M0 0h200v139.216H0z"/></clipPath></defs></svg>