<svg width="300" height="300" fill="none" xmlns="http://www.w3.org/2000/svg"><g clip-path="url(#a)"><mask id="b" style="mask-type:alpha" maskUnits="userSpaceOnUse" x="0" y="0" width="300" height="300"><path d="M150 300c82.843 0 150-67.157 150-150S232.843 0 150 0 0 67.157 0 150s67.157 150 150 150Z" fill="#D9D9D9"/></mask><g mask="url(#b)" fill="#000"><path d="M104.51 67.45a3.51 3.51 0 1 0 0-7.02 3.51 3.51 0 0 0 0 7.02ZM104.51 293.45a3.51 3.51 0 1 0 .001-7.019 3.51 3.51 0 0 0-.001 7.019ZM225.51 67.45a3.51 3.51 0 1 0 0-7.02 3.51 3.51 0 0 0 0 7.02ZM225.51 293.45a3.51 3.51 0 1 0 .001-7.019 3.51 3.51 0 0 0-.001 7.019ZM13.7 67.45a3.51 3.51 0 1 0 0-7.02 3.51 3.51 0 0 0 0 7.02ZM13.7 293.45a3.51 3.51 0 1 0 0-7.02 3.51 3.51 0 0 0 0 7.02ZM134.7 67.45a3.51 3.51 0 1 0 0-7.02 3.51 3.51 0 0 0 0 7.02ZM134.7 293.45a3.51 3.51 0 1 0 0-7.02 3.51 3.51 0 0 0 0 7.02ZM255.7 67.45a3.51 3.51 0 1 0 0-7.02 3.51 3.51 0 0 0 0 7.02ZM255.7 293.45a3.51 3.51 0 1 0 0-7.02 3.51 3.51 0 0 0 0 7.02ZM43.88 67.45a3.51 3.51 0 1 0 0-7.02 3.51 3.51 0 0 0 0 7.02ZM43.88 293.45a3.51 3.51 0 1 0 0-7.02 3.51 3.51 0 0 0 0 7.02ZM164.88 67.45a3.51 3.51 0 1 0 0-7.02 3.51 3.51 0 0 0 0 7.02ZM164.88 293.45a3.51 3.51 0 1 0 .001-7.019 3.51 3.51 0 0 0-.001 7.019ZM285.88 67.45a3.51 3.51 0 1 0 0-7.02 3.51 3.51 0 0 0 0 7.02ZM285.88 293.45a3.51 3.51 0 1 0 .001-7.019 3.51 3.51 0 0 0-.001 7.019ZM74.07 67.45a3.51 3.51 0 1 0 0-7.02 3.51 3.51 0 0 0 0 7.02ZM74.07 293.45a3.51 3.51 0 1 0 0-7.02 3.51 3.51 0 0 0 0 7.02ZM195.07 67.45a3.51 3.51 0 1 0 0-7.02 3.51 3.51 0 0 0 0 7.02ZM195.07 293.45a3.51 3.51 0 1 0 .001-7.019 3.51 3.51 0 0 0-.001 7.019ZM104.51 96.08a3.51 3.51 0 1 0 0-7.02 3.51 3.51 0 0 0 0 7.02ZM225.51 96.08a3.51 3.51 0 1 0 0-7.02 3.51 3.51 0 0 0 0 7.02ZM13.7 96.08a3.51 3.51 0 1 0 0-7.02 3.51 3.51 0 0 0 0 7.02ZM134.7 96.08a3.51 3.51 0 1 0 0-7.02 3.51 3.51 0 0 0 0 7.02ZM255.7 96.08a3.51 3.51 0 1 0 0-7.02 3.51 3.51 0 0 0 0 7.02ZM43.88 96.08a3.51 3.51 0 1 0 0-7.02 3.51 3.51 0 0 0 0 7.02ZM164.88 96.08a3.51 3.51 0 1 0 0-7.02 3.51 3.51 0 0 0 0 7.02ZM285.88 96.08a3.51 3.51 0 1 0 0-7.02 3.51 3.51 0 0 0 0 7.02ZM74.07 96.08a3.51 3.51 0 1 0 0-7.02 3.51 3.51 0 0 0 0 7.02ZM195.07 96.08a3.51 3.51 0 1 0 0-7.02 3.51 3.51 0 0 0 0 7.02ZM104.51 124.7a3.51 3.51 0 1 0 0-7.02 3.51 3.51 0 0 0 0 7.02ZM225.51 124.7a3.51 3.51 0 1 0 0-7.02 3.51 3.51 0 0 0 0 7.02ZM13.7 124.7a3.51 3.51 0 1 0 0-7.02 3.51 3.51 0 0 0 0 7.02ZM134.7 124.7a3.51 3.51 0 1 0-.001-7.021 3.51 3.51 0 0 0 .001 7.021ZM255.7 124.7a3.51 3.51 0 1 0-.001-7.021 3.51 3.51 0 0 0 .001 7.021ZM43.88 124.7a3.51 3.51 0 1 0 0-7.02 3.51 3.51 0 0 0 0 7.02ZM164.88 124.7a3.51 3.51 0 1 0 0-7.02 3.51 3.51 0 0 0 0 7.02ZM285.88 124.7a3.51 3.51 0 1 0 0-7.02 3.51 3.51 0 0 0 0 7.02ZM74.07 124.7a3.51 3.51 0 1 0 0-7.02 3.51 3.51 0 0 0 0 7.02ZM195.07 124.7a3.51 3.51 0 1 0 0-7.02 3.51 3.51 0 0 0 0 7.02ZM104.51 153.33a3.51 3.51 0 1 0 .001-7.019 3.51 3.51 0 0 0-.001 7.019ZM225.51 153.33a3.51 3.51 0 1 0 .001-7.019 3.51 3.51 0 0 0-.001 7.019ZM13.7 153.33a3.51 3.51 0 1 0 0-7.02 3.51 3.51 0 0 0 0 7.02ZM134.7 153.33a3.51 3.51 0 1 0 0-7.02 3.51 3.51 0 0 0 0 7.02ZM255.7 153.33a3.51 3.51 0 1 0 0-7.02 3.51 3.51 0 0 0 0 7.02ZM43.88 153.33a3.51 3.51 0 1 0 0-7.02 3.51 3.51 0 0 0 0 7.02ZM164.88 153.33a3.51 3.51 0 1 0 .001-7.019 3.51 3.51 0 0 0-.001 7.019ZM285.88 153.33a3.51 3.51 0 1 0 .001-7.019 3.51 3.51 0 0 0-.001 7.019ZM74.07 153.33a3.51 3.51 0 1 0 0-7.02 3.51 3.51 0 0 0 0 7.02ZM195.07 153.33a3.51 3.51 0 1 0 .001-7.019 3.51 3.51 0 0 0-.001 7.019ZM104.51 182.02a3.51 3.51 0 1 0 .001-7.019 3.51 3.51 0 0 0-.001 7.019ZM225.51 182.02a3.51 3.51 0 1 0 .001-7.019 3.51 3.51 0 0 0-.001 7.019ZM13.7 182.02a3.51 3.51 0 1 0 0-7.02 3.51 3.51 0 0 0 0 7.02ZM134.7 182.02a3.51 3.51 0 1 0 0-7.02 3.51 3.51 0 0 0 0 7.02ZM255.7 182.02a3.51 3.51 0 1 0 0-7.02 3.51 3.51 0 0 0 0 7.02ZM43.88 182.02a3.51 3.51 0 1 0 0-7.02 3.51 3.51 0 0 0 0 7.02ZM164.88 182.02a3.51 3.51 0 1 0 .001-7.019 3.51 3.51 0 0 0-.001 7.019ZM285.88 182.02a3.51 3.51 0 1 0 .001-7.019 3.51 3.51 0 0 0-.001 7.019ZM74.07 182.02a3.51 3.51 0 1 0 0-7.02 3.51 3.51 0 0 0 0 7.02ZM195.07 182.02a3.51 3.51 0 1 0 .001-7.019 3.51 3.51 0 0 0-.001 7.019ZM104.51 210.65a3.51 3.51 0 1 0 .001-7.019 3.51 3.51 0 0 0-.001 7.019ZM225.51 210.65a3.51 3.51 0 1 0 .001-7.019 3.51 3.51 0 0 0-.001 7.019ZM13.7 210.65a3.51 3.51 0 1 0 0-7.02 3.51 3.51 0 0 0 0 7.02ZM134.7 210.65a3.51 3.51 0 1 0 0-7.02 3.51 3.51 0 0 0 0 7.02ZM255.7 210.65a3.51 3.51 0 1 0 0-7.02 3.51 3.51 0 0 0 0 7.02ZM43.88 210.65a3.51 3.51 0 1 0 0-7.02 3.51 3.51 0 0 0 0 7.02ZM164.88 210.65a3.51 3.51 0 1 0 .001-7.019 3.51 3.51 0 0 0-.001 7.019ZM285.88 210.65a3.51 3.51 0 1 0 .001-7.019 3.51 3.51 0 0 0-.001 7.019ZM74.07 210.65a3.51 3.51 0 1 0 0-7.02 3.51 3.51 0 0 0 0 7.02ZM195.07 210.65a3.51 3.51 0 1 0 .001-7.019 3.51 3.51 0 0 0-.001 7.019ZM104.51 13.28a3.51 3.51 0 1 0 0-7.02 3.51 3.51 0 0 0 0 7.02ZM104.51 239.28a3.51 3.51 0 1 0 .001-7.019 3.51 3.51 0 0 0-.001 7.019ZM225.51 13.28a3.51 3.51 0 1 0 0-7.02 3.51 3.51 0 0 0 0 7.02ZM225.51 239.28a3.51 3.51 0 1 0 .001-7.019 3.51 3.51 0 0 0-.001 7.019ZM13.7 13.28a3.51 3.51 0 1 0 0-7.02 3.51 3.51 0 0 0 0 7.02ZM13.7 239.28a3.51 3.51 0 1 0 0-7.02 3.51 3.51 0 0 0 0 7.02ZM134.7 13.28a3.51 3.51 0 1 0 0-7.02 3.51 3.51 0 0 0 0 7.02ZM134.7 239.28a3.51 3.51 0 1 0 0-7.02 3.51 3.51 0 0 0 0 7.02ZM255.7 13.28a3.51 3.51 0 1 0 0-7.02 3.51 3.51 0 0 0 0 7.02ZM255.7 239.28a3.51 3.51 0 1 0 0-7.02 3.51 3.51 0 0 0 0 7.02ZM43.88 13.28a3.51 3.51 0 1 0 0-7.02 3.51 3.51 0 0 0 0 7.02ZM43.88 239.28a3.51 3.51 0 1 0 0-7.02 3.51 3.51 0 0 0 0 7.02ZM164.88 13.28a3.51 3.51 0 1 0 0-7.02 3.51 3.51 0 0 0 0 7.02ZM164.88 239.28a3.51 3.51 0 1 0 .001-7.019 3.51 3.51 0 0 0-.001 7.019ZM285.88 13.28a3.51 3.51 0 1 0 0-7.02 3.51 3.51 0 0 0 0 7.02ZM285.88 239.28a3.51 3.51 0 1 0 .001-7.019 3.51 3.51 0 0 0-.001 7.019ZM74.07 13.28a3.51 3.51 0 1 0 0-7.02 3.51 3.51 0 0 0 0 7.02ZM74.07 239.28a3.51 3.51 0 1 0 0-7.02 3.51 3.51 0 0 0 0 7.02ZM195.07 13.28a3.51 3.51 0 1 0 0-7.02 3.51 3.51 0 0 0 0 7.02ZM195.07 239.28a3.51 3.51 0 1 0 .001-7.019 3.51 3.51 0 0 0-.001 7.019ZM104.51 41.9a3.51 3.51 0 1 0 0-7.02 3.51 3.51 0 0 0 0 7.02ZM104.51 267.9a3.51 3.51 0 1 0 .001-7.019 3.51 3.51 0 0 0-.001 7.019ZM225.51 41.9a3.51 3.51 0 1 0 0-7.02 3.51 3.51 0 0 0 0 7.02ZM225.51 267.9a3.51 3.51 0 1 0 .001-7.019 3.51 3.51 0 0 0-.001 7.019ZM13.7 41.9a3.51 3.51 0 1 0 0-7.02 3.51 3.51 0 0 0 0 7.02ZM13.7 267.9a3.51 3.51 0 1 0 0-7.02 3.51 3.51 0 0 0 0 7.02ZM134.7 41.9a3.51 3.51 0 1 0 0-7.02 3.51 3.51 0 0 0 0 7.02ZM134.7 267.9a3.51 3.51 0 1 0 0-7.02 3.51 3.51 0 0 0 0 7.02ZM255.7 41.9a3.51 3.51 0 1 0 0-7.02 3.51 3.51 0 0 0 0 7.02ZM255.7 267.9a3.51 3.51 0 1 0 0-7.02 3.51 3.51 0 0 0 0 7.02ZM43.88 41.9a3.51 3.51 0 1 0 0-7.02 3.51 3.51 0 0 0 0 7.02ZM43.88 267.9a3.51 3.51 0 1 0 0-7.02 3.51 3.51 0 0 0 0 7.02ZM164.88 41.9a3.51 3.51 0 1 0 0-7.02 3.51 3.51 0 0 0 0 7.02ZM164.88 267.9a3.51 3.51 0 1 0 .001-7.019 3.51 3.51 0 0 0-.001 7.019ZM285.88 41.9a3.51 3.51 0 1 0 0-7.02 3.51 3.51 0 0 0 0 7.02ZM285.88 267.9a3.51 3.51 0 1 0 .001-7.019 3.51 3.51 0 0 0-.001 7.019ZM74.07 41.9a3.51 3.51 0 1 0 0-7.02 3.51 3.51 0 0 0 0 7.02ZM74.07 267.9a3.51 3.51 0 1 0 0-7.02 3.51 3.51 0 0 0 0 7.02ZM195.07 41.9a3.51 3.51 0 1 0 0-7.02 3.51 3.51 0 0 0 0 7.02ZM195.07 267.9a3.51 3.51 0 1 0 .001-7.019 3.51 3.51 0 0 0-.001 7.019Z"/></g></g><defs><clipPath id="a"><path fill="#fff" d="M0 0h300v300H0z"/></clipPath></defs></svg>